<svg width="65" height="65" viewBox="0 0 65 65" fill="none" xmlns="http://www.w3.org/2000/svg">
<path d="M23.017 62.4596H15.2359C8.22372 62.4596 2.53934 56.7752 2.53934 49.763V23.832C2.53934 20.4647 3.87705 17.2352 6.25817 14.8541L14.8619 6.25027C19.733 1.3791 27.5774 1.2939 32.553 5.9938C29.0007 5.73402 25.3598 6.96204 22.6435 9.67834L11.6597 20.6622C10.8027 21.5194 10.4112 22.6821 10.4112 23.8942V49.7628C10.4112 56.7749 16.0052 62.4592 23.017 62.4596ZM49.7706 35.7967C49.7706 33.1329 52.397 30.8536 56.1189 29.9116C54.9423 29.6139 53.6573 29.4484 52.3099 29.4484C46.7002 29.4484 42.1527 32.2907 42.1527 35.7967C42.1527 39.3028 46.7002 42.145 52.3099 42.145C53.6573 42.145 54.9423 41.9796 56.1189 41.6819C52.397 40.7398 49.7706 38.4606 49.7706 35.7967Z" fill="#5890E3"/>
<path d="M52.3099 44.6849C45.1903 44.6849 39.6133 40.781 39.6133 35.7973C39.6133 30.8137 45.1903 26.9097 52.3099 26.9097C59.4295 26.9097 65.0065 30.8137 65.0065 35.7973C65.0065 40.781 59.4295 44.6849 52.3099 44.6849ZM52.3099 31.9883C50.0989 31.9883 47.9716 32.5253 46.4734 33.4616C45.3413 34.1692 44.692 35.0205 44.692 35.7973C44.692 36.5741 45.3413 37.4253 46.4734 38.133C47.9716 39.0694 50.0989 39.6063 52.3099 39.6063C54.5209 39.6063 56.6482 39.0694 58.1464 38.133C59.2786 37.4254 59.9279 36.5741 59.9279 35.7973C59.9279 35.0205 59.2786 34.1694 58.1464 33.4616C56.6482 32.5253 54.5209 31.9883 52.3099 31.9883ZM34.9156 62.4601C34.9156 61.0577 33.7788 59.9208 32.3763 59.9208H15.2359C9.63518 59.9208 5.07863 55.3643 5.07863 49.7635V23.8326C5.07863 21.1196 6.13512 18.5688 8.0537 16.6504L16.6574 8.04652C20.6179 4.0862 27.0618 4.08633 31.0151 8.03941L39.5586 16.6501C40.7946 17.8862 41.6952 19.4299 42.1631 21.1138C42.5384 22.4651 43.938 23.256 45.2893 22.881C46.6406 22.5056 47.4318 21.106 47.0565 19.7547C46.3547 17.2286 45.0039 14.9132 43.1568 13.066L34.6132 4.45517C28.6728 -1.48518 19.0069 -1.48493 13.0663 4.45517L4.46247 13.0591C1.58479 15.9371 0 19.7629 0 23.8326V49.7634C0 58.1645 6.83482 64.9993 15.2359 64.9993H32.3763C33.7788 64.9995 34.9156 63.8625 34.9156 62.4601ZM23.8696 17.2603C22.1166 17.2603 20.6954 18.6814 20.6954 20.4345C20.6954 22.1875 22.1166 23.6086 23.8696 23.6086C25.6226 23.6086 27.0437 22.1875 27.0437 20.4345C27.0437 18.6814 25.6226 17.2603 23.8696 17.2603Z" fill="#133851"/>
<path d="M52.183 64.9997C47.8153 64.9997 43.679 63.746 40.5363 61.4698C39.4004 60.6472 39.1466 59.0595 39.9691 57.9236C40.7918 56.7878 42.3795 56.534 43.5153 57.3565C48.2138 60.7595 56.1523 60.7595 60.8508 57.3565C61.9868 56.5337 63.5743 56.7878 64.3969 57.9236C65.2196 59.0593 64.9656 60.647 63.8298 61.4698C60.6869 63.746 56.5506 64.9997 52.183 64.9997ZM63.8297 51.3125C64.9655 50.4899 65.2193 48.9022 64.3968 47.7664C63.5742 46.6305 61.9868 46.3766 60.8507 47.1992C56.1522 50.6023 48.2136 50.6023 43.5151 47.1992C42.3795 46.3766 40.7918 46.6305 39.969 47.7664C39.1464 48.9021 39.4003 50.4898 40.5361 51.3125C43.679 53.5888 47.8152 54.8424 52.1828 54.8424C56.5505 54.8424 60.6869 53.5888 63.8297 51.3125Z" fill="#5890E3"/>
</svg>
