<svg width="76" height="47" viewBox="0 0 76 47" fill="none" xmlns="http://www.w3.org/2000/svg">
<path d="M21.2441 0L0.977939 20.2661C0.331396 20.9562 -0.0193297 21.872 0.000822788 22.8175C-0.00193085 23.2938 0.0893574 23.7659 0.269453 24.2068C0.449548 24.6477 0.714909 25.0488 1.05032 25.3869L21.3164 45.6349L26.4373 40.5322L8.72249 22.8175L26.4373 5.12081L21.2441 0ZM54.7555 0L49.6347 5.12081L67.3495 22.8175L49.6347 40.5322L54.7555 45.6349L75.0216 25.3869C75.6726 24.6923 76.0237 23.7691 75.9988 22.8175C75.9995 21.8618 75.6222 20.9446 74.9493 20.2661L54.7555 0Z" fill="#0052CC"/>
<path d="M38.9721 0.247852L29.923 45.4934L37.0203 46.9129L46.0695 1.66733L38.9721 0.247852Z" fill="#5890E3"/>
</svg>
