<svg width="74" height="55" viewBox="0 0 74 55" fill="none" xmlns="http://www.w3.org/2000/svg">
<path d="M35.615 26.0385H19.1529L7.20214 33.1615C6.72727 33.4781 6.17326 33.0032 6.2524 32.4492L7.99358 25.9593H2.69091C1.26631 25.9593 0 24.693 0 23.2684V2.69091C0 1.26631 1.26631 0 2.69091 0H35.615C37.0396 0 38.3059 1.26631 38.3059 2.69091V23.4267C38.3059 24.9305 37.1187 26.0385 35.615 26.0385Z" fill="#5890E3"/>
<path d="M27.6214 45.508H49.0695L64.661 54.7679C65.2941 55.1636 66.0064 54.5305 65.9273 53.8973L63.6321 45.508H70.5176C72.4171 45.508 74 43.846 74 42.0257V15.1957C74 13.2963 72.338 11.7134 70.5176 11.7134H27.7797C25.8802 11.7134 24.2973 13.3754 24.2973 15.1957V42.184C24.0599 44.0043 25.7219 45.508 27.6214 45.508Z" fill="#014AB6"/>
<path d="M49.0695 25.9595C50.5733 25.9595 51.6813 27.2258 51.6813 28.5712C51.6813 29.9167 50.415 31.183 49.0695 31.183C47.5658 31.183 46.4578 29.9167 46.4578 28.5712C46.4578 27.2258 47.5658 25.9595 49.0695 25.9595ZM59.8332 25.9595C61.3369 25.9595 62.4449 27.2258 62.4449 28.5712C62.4449 29.9167 61.1786 31.183 59.8332 31.183C58.3294 31.183 57.2214 29.9167 57.2214 28.5712C57.2214 27.2258 58.3294 25.9595 59.8332 25.9595ZM38.2268 25.9595C39.7305 25.9595 40.8385 27.2258 40.8385 28.5712C40.8385 29.9167 39.5722 31.183 38.2268 31.183C36.723 31.183 35.615 29.9167 35.615 28.5712C35.615 27.2258 36.723 25.9595 38.2268 25.9595Z" fill="white"/>
</svg>
