<svg width="69" height="69" viewBox="0 0 69 69" fill="none" xmlns="http://www.w3.org/2000/svg">
<path d="M34.5 0C15.4711 0 0 15.4819 0 34.5C0 53.5289 15.4711 69 34.5 69C53.5181 69 69 53.5289 69 34.5C69 15.4819 53.5181 0 34.5 0ZM26.123 3.20203C23.0934 5.62781 20.4736 9.32578 18.4898 13.9186C16.1611 13.1316 14.0264 12.1828 12.1181 11.0939C15.9994 7.38516 20.7862 4.62516 26.123 3.20203ZM10.598 12.6356C12.7219 13.897 15.1153 14.9752 17.7244 15.8592C15.8161 20.9695 14.6733 26.9855 14.5547 33.4542H2.11313C2.37188 25.4545 5.54156 18.1664 10.598 12.6356ZM10.0589 55.7498C5.31516 50.3053 2.36109 43.2652 2.11313 35.5458H14.5547C14.6625 41.8205 15.7406 47.6747 17.5411 52.6772C14.7919 53.5073 12.2906 54.5423 10.0589 55.7498ZM11.5252 57.3455C13.552 56.2781 15.8269 55.3725 18.3066 54.6286C20.3011 59.4262 22.9964 63.2967 26.123 65.8088C20.5167 64.3102 15.5034 61.3453 11.5252 57.3455ZM33.4542 66.8545C28.0744 66.2831 23.3414 61.3992 20.2687 54.0788C24.398 53.0222 28.8291 52.4723 33.4542 52.4616V66.8545ZM33.4542 50.37C28.5595 50.3808 23.8805 50.9738 19.5141 52.1166C17.7891 47.3081 16.7541 41.6372 16.6462 35.5458H33.4542V50.37ZM33.4542 33.4542H16.6462C16.7541 27.1903 17.8538 21.3684 19.6542 16.4845C23.9667 17.7459 28.6027 18.4575 33.4542 18.6084V33.4542ZM33.4542 16.5169C28.9153 16.3659 24.4734 15.6867 20.4412 14.5331C23.5139 7.43906 28.1822 2.71688 33.4542 2.15625V16.5169ZM58.9303 13.2502C63.6848 18.7055 66.6389 25.7456 66.8761 33.4542H54.4345C54.3267 27.1903 53.2486 21.3361 51.4481 16.3336C54.1758 15.5034 56.6878 14.4792 58.9303 13.2502ZM57.4641 11.6653C55.4156 12.7327 53.1516 13.6383 50.6934 14.3822C48.6881 9.58453 46.0036 5.71406 42.8662 3.20203C48.4725 4.70062 53.4858 7.66547 57.4641 11.6653ZM35.5458 2.15625C40.9148 2.71688 45.6586 7.61156 48.7205 14.932C44.5912 15.9886 40.1602 16.5384 35.5458 16.5492V2.15625ZM35.5458 18.6408C40.4297 18.6192 45.1195 18.037 49.4859 16.8942C51.2002 21.6919 52.2459 27.3628 52.3538 33.4542H35.5458V18.6408ZM35.5458 35.5458H52.3538C52.2352 41.8205 51.1462 47.6423 49.335 52.5263C45.0225 51.2648 40.3866 50.5425 35.5458 50.4023V35.5458ZM35.5458 52.4939C40.0739 52.6341 44.5266 53.3133 48.548 54.4777C45.4753 61.5717 40.8178 66.3047 35.5458 66.8545V52.4939ZM42.8662 65.8088C45.8958 63.383 48.5264 59.6742 50.4994 55.0922C52.8497 55.8792 54.9844 56.828 56.8819 57.9169C53.0006 61.6256 48.203 64.3856 42.8662 65.8088ZM58.3913 56.3752C56.2889 55.1245 53.9062 54.0464 51.2756 53.1516C53.1839 48.0412 54.3267 42.0145 54.4345 35.5458H66.8761C66.6281 43.5563 63.4584 50.8444 58.3913 56.3752Z" fill="#133851"/>
<path d="M26.123 65.8086C20.5167 64.31 15.5034 61.3452 11.5252 57.3453C13.552 56.278 15.8269 55.3724 18.3066 54.6285C20.3011 59.4261 22.9964 63.2966 26.123 65.8086ZM17.5411 52.6771C14.7919 53.5072 12.2906 54.5422 10.0589 55.7497C5.31516 50.3052 2.3611 43.265 2.11313 35.5457H14.5547C14.6625 41.8203 15.7406 47.6746 17.5411 52.6771ZM17.7244 15.8591C15.8161 20.9694 14.6733 26.9853 14.5547 33.4541H2.11313C2.37188 25.4544 5.54157 18.1663 10.598 12.6355C12.7219 13.8969 15.1153 14.975 17.7244 15.8591ZM26.123 3.2019C23.0934 5.62769 20.4736 9.32565 18.4898 13.9185C16.1611 13.1314 14.0264 12.1827 12.1181 11.0938C15.9994 7.38503 20.7863 4.62503 26.123 3.2019Z" fill="#8BBDFF"/>
<path d="M26.1186 65.8086C20.5124 64.31 15.4991 61.3452 11.5208 57.3453C12.4049 56.8817 13.3321 56.4505 14.3024 56.0516C16.6635 58.3696 19.3696 60.3317 22.3452 61.8411C23.5096 63.3936 24.771 64.7197 26.1186 65.8086ZM13.3429 54.1864C12.1893 54.6608 11.0896 55.1891 10.0546 55.7497C5.31083 50.3052 2.35676 43.265 2.1088 35.5457H5.88223C6.33505 42.6182 9.0627 49.0653 13.3429 54.1864ZM13.2458 14.0478C8.81473 19.363 6.04395 26.1013 5.75286 33.4541H2.1088C2.36755 25.4544 5.53723 18.1663 10.5936 12.6355C11.4346 13.1314 12.3186 13.6058 13.2458 14.0478ZM26.1186 3.2019C24.8788 4.19378 23.6929 5.41206 22.604 6.8244C19.6499 8.25831 16.9546 10.1342 14.5827 12.3552C13.7202 11.9671 12.9008 11.5466 12.1138 11.0938C15.995 7.38503 20.7819 4.62503 26.1186 3.2019Z" fill="#5890E3"/>
<path d="M56.8819 57.9167C53.0006 61.6255 48.203 64.3855 42.8663 65.8086C45.8958 63.3828 48.5264 59.6741 50.4994 55.0921C52.8497 55.8791 54.9844 56.8278 56.8819 57.9167ZM66.8761 35.5457C66.6281 43.5561 63.4585 50.8442 58.3913 56.375C56.2889 55.1244 53.9063 54.0463 51.2757 53.1514C53.1839 48.0411 54.3267 42.0144 54.4346 35.5457H66.8761ZM66.8761 33.4541H54.4346C54.3267 27.1902 53.2486 21.336 51.4481 16.3335C54.1758 15.5033 56.6878 14.4791 58.9303 13.25C63.6849 18.7053 66.6389 25.7455 66.8761 33.4541ZM57.4641 11.6652C55.4156 12.7325 53.1516 13.6382 50.6935 14.3821C48.6881 9.5844 46.0036 5.71394 42.8663 3.2019C48.4725 4.7005 53.4858 7.66534 57.4641 11.6652Z" fill="#8BBDFF"/>
<path d="M56.8776 57.9167C52.9963 61.6255 48.1987 64.3855 42.8619 65.8086C44.3713 64.6011 45.7729 63.081 47.0558 61.2913C49.5355 59.9544 51.8104 58.3049 53.848 56.3966H53.8588C54.9262 56.8602 55.9288 57.3669 56.8776 57.9167ZM66.8718 35.5457C66.6238 43.5561 63.4541 50.8442 58.3869 56.375C57.3627 55.7605 56.2738 55.1999 55.1094 54.6716C59.4866 49.4319 62.2358 42.8014 62.5808 35.5457H66.8718ZM66.8718 33.4541H62.473C62.0418 26.4894 59.3788 20.1069 55.1849 15.0182C56.5002 14.4791 57.7508 13.8969 58.926 13.25C63.6805 18.7053 66.6346 25.7455 66.8718 33.4541ZM57.4598 11.6652C56.3385 12.2474 55.1526 12.7864 53.9019 13.2608C51.9829 11.3633 49.8266 9.72456 47.4871 8.36612C46.1071 6.29612 44.5438 4.54956 42.8619 3.2019C48.4682 4.7005 53.4815 7.66534 57.4598 11.6652Z" fill="#8BBDFF"/>
<path d="M48.548 54.4777C45.4753 61.5717 40.8178 66.3047 35.5458 66.8545V52.4939C40.0739 52.6341 44.5266 53.3133 48.548 54.4777ZM52.3537 35.5458C52.2352 41.8205 51.1462 47.6423 49.335 52.5263C45.0225 51.2648 40.3866 50.5425 35.5458 50.4023V35.5458H52.3537ZM52.3537 33.4542H35.5458V18.6408C40.4297 18.6192 45.1195 18.037 49.4859 16.8942C51.2002 21.6919 52.2459 27.3628 52.3537 33.4542ZM48.7205 14.932C44.5912 15.9886 40.1602 16.5384 35.5458 16.5492V2.15625C40.9148 2.71687 45.6586 7.61156 48.7205 14.932Z" fill="#8BBDFF"/>
<path d="M48.5437 54.4777C45.471 61.5717 40.8135 66.3047 35.5415 66.8545V64.8492C39.4012 63.135 42.7649 59.1136 45.1907 53.6475C46.3335 53.8847 47.4548 54.165 48.5437 54.4777ZM52.3494 35.5458C52.2308 41.8205 51.1419 47.6423 49.3307 52.5263C48.2202 52.2028 47.0882 51.9117 45.9346 51.6637C47.5841 46.9739 48.576 41.4647 48.7054 35.5458H52.3494ZM52.3494 33.4542H48.7054C48.5868 27.6755 47.6273 22.2848 46.0424 17.6705C47.2068 17.4441 48.3604 17.1853 49.4816 16.8942C51.1958 21.6919 52.2416 27.3628 52.3494 33.4542ZM48.7162 14.932C47.6596 15.2016 46.5815 15.4388 45.4818 15.6436C43.0237 9.94031 39.5413 5.75719 35.5415 4.02141V2.15625C40.9105 2.71687 45.6543 7.61156 48.7162 14.932Z" fill="#5890E3"/>
<path d="M33.4542 52.4616V66.8545C28.0744 66.2831 23.3414 61.3992 20.2687 54.0788C24.398 53.0222 28.8291 52.4723 33.4542 52.4616ZM33.4542 35.5458V50.37C28.5595 50.3808 23.8805 50.9738 19.5141 52.1166C17.7891 47.3081 16.7541 41.6372 16.6462 35.5458H33.4542ZM33.4542 18.6084V33.4542H16.6462C16.7541 27.1903 17.8537 21.3684 19.6542 16.4845C23.9667 17.7459 28.6026 18.4575 33.4542 18.6084ZM33.4542 2.15625V16.5169C28.9153 16.3659 24.4734 15.6867 20.4412 14.5331C23.5139 7.43906 28.1822 2.71687 33.4542 2.15625Z" fill="#5890E3"/>
<path d="M33.4499 64.5904V66.8545C28.0701 66.2831 23.3371 61.3992 20.2644 54.0787C21.569 53.7445 22.9058 53.4642 24.2643 53.2378C26.5607 58.6176 29.7519 62.6498 33.4499 64.5904Z" fill="#8BBDFF"/>
<path d="M33.4499 52.4614V64.5903C29.7519 62.6497 26.5607 58.6175 24.2643 53.2377C27.2076 52.731 30.2802 52.4722 33.4499 52.4614Z" fill="#5890E3"/>
<path d="M23.2832 51.2864C22.0002 51.5128 20.7388 51.7931 19.5098 52.1166C17.7848 47.3081 16.7497 41.6372 16.6419 35.5458H20.5663C20.7065 41.3138 21.6768 46.6828 23.2832 51.2864ZM23.3263 17.4009C21.6768 22.08 20.6849 27.5677 20.5663 33.4542H16.6419C16.7497 27.1903 17.8494 21.3684 19.6499 16.4845C20.8466 16.8403 22.0757 17.1422 23.3263 17.4009ZM33.4499 2.15625V4.42031C29.8274 6.32859 26.6793 10.253 24.3937 15.4819C23.0352 15.2231 21.7199 14.8997 20.4369 14.5331C23.5096 7.43906 28.1779 2.71687 33.4499 2.15625Z" fill="#8BBDFF"/>
<path d="M33.4499 52.4614V64.5903C29.7519 62.6497 26.5607 58.6175 24.2643 53.2377C27.2076 52.731 30.2802 52.4722 33.4499 52.4614Z" fill="#5890E3"/>
</svg>
